<svg width="792" height="418" viewBox="0 0 792 418" fill="none" xmlns="http://www.w3.org/2000/svg">
<path d="M0.757999 340.795C14.5467 314.336 27.59 287.876 39.888 261.417C52.186 234.585 64.6703 209.244 77.341 185.393C84.7943 171.977 90.9433 162.66 95.788 157.443C101.005 151.853 107.9 149.058 116.471 149.058C119.452 149.058 122.62 149.617 125.974 150.735C129.328 151.48 132.682 151.853 136.036 151.853C138.272 151.853 139.949 151.667 141.067 151.294C135.85 154.275 129.142 161.729 120.943 173.654C112.744 185.207 104.359 198.623 95.788 213.902C87.2167 229.181 79.577 243.529 72.869 256.945C79.9497 248.374 87.2167 239.802 94.67 231.231C102.496 222.66 111.067 214.461 120.384 206.635C128.583 199.554 137.154 191.915 146.098 183.716C155.415 175.145 164.545 167.878 173.489 161.915C182.433 155.952 190.259 152.971 196.967 152.971C199.576 152.971 201.253 153.157 201.998 153.53C209.079 156.511 212.619 161.356 212.619 168.064C212.619 170.3 211.687 173.654 209.824 178.126C204.979 190.797 198.644 203.84 190.818 217.256C183.365 230.299 176.284 243.529 169.576 256.945C175.166 250.237 182.06 242.038 190.259 232.349C198.83 222.66 207.402 214.088 215.973 206.635C224.172 199.182 234.606 191.356 247.277 183.157C259.948 174.958 272.432 167.878 284.73 161.915C297.028 155.952 306.904 152.971 314.357 152.971C316.966 152.971 318.829 153.157 319.947 153.53C319.947 153.53 317.897 157.257 313.798 164.71C309.699 171.791 304.481 181.294 298.146 193.219C292.183 204.772 286.034 217.256 279.699 230.672C273.364 243.715 267.587 256.386 262.37 268.684C257.525 280.609 254.358 290.671 252.867 298.87C251.749 303.715 251.19 308.187 251.19 312.286C251.19 318.249 252.308 322.162 254.544 324.025C256.78 325.888 259.202 326.82 261.811 326.82C269.264 326.82 276.531 323.652 283.612 317.317C291.065 310.982 298.332 302.969 305.413 293.28C312.494 283.218 318.829 272.597 324.419 261.417C330.382 250.237 335.413 239.802 339.512 230.113C343.984 230.113 346.22 231.79 346.22 235.144C342.121 245.206 336.903 256.386 330.568 268.684C324.605 280.609 317.711 291.976 309.885 302.783C302.059 313.59 293.488 322.534 284.171 329.615C274.854 336.696 264.792 340.236 253.985 340.236C246.159 340.236 238.706 337.627 231.625 332.41C224.917 327.193 221.563 317.503 221.563 303.342C221.563 288.063 225.103 272.783 232.184 257.504C239.637 242.225 247.277 228.25 255.103 215.579C258.83 209.244 260.693 204.213 260.693 200.486C260.693 196.014 258.457 193.778 253.985 193.778C250.258 193.778 245.041 195.641 238.333 199.368C231.998 203.095 223.985 209.616 214.296 218.933C208.333 224.523 201.253 232.349 193.054 242.411C185.228 252.1 177.216 262.721 169.017 274.274C160.818 285.827 153.738 297.193 147.775 308.373C141.812 319.553 137.899 329.429 136.036 338C130.446 338 125.974 335.764 122.62 331.292C119.266 326.447 117.589 320.857 117.589 314.522C117.589 313.404 117.589 312.286 117.589 311.168C117.589 310.05 117.775 308.746 118.148 307.255C120.011 295.702 122.993 286.013 127.092 278.187C131.191 269.988 135.85 260.485 141.067 249.678C143.676 244.833 146.657 239.243 150.011 232.908C153.365 226.2 156.346 219.865 158.955 213.902C161.564 207.567 162.868 202.349 162.868 198.25C162.868 194.523 161.377 192.66 158.396 192.66C155.042 192.66 150.57 194.337 144.98 197.691C139.763 201.045 134.732 204.958 129.887 209.43C125.042 213.529 121.316 216.697 118.707 218.933C109.39 227.877 98.024 240.734 84.608 257.504C71.5647 274.274 57.217 298.125 41.565 329.056C39.329 333.155 36.7203 335.764 33.739 336.882C30.7577 337.627 26.0993 338 19.764 338C15.6647 338 12.3107 338 9.702 338C6.72067 338.373 3.73933 339.304 0.757999 340.795ZM460.781 338C448.632 338 439.698 333.891 433.981 325.672C428.264 317.453 425.405 307.805 425.405 296.728C425.405 293.512 425.584 290.296 425.941 287.08C426.298 283.507 427.013 279.933 428.085 276.36C423.082 284.221 417.186 292.976 410.397 302.624C403.965 311.915 396.461 320.133 387.885 327.28C379.666 334.069 370.376 337.464 360.013 337.464C355.368 337.464 350.008 336.392 343.933 334.248C338.216 332.104 333.034 327.995 328.389 321.92C324.101 315.845 321.957 306.912 321.957 295.12C321.957 279.755 325.352 263.496 332.141 246.344C338.93 229.192 348.221 213.112 360.013 198.104C371.805 182.739 385.205 170.411 400.213 161.12C415.221 151.472 430.765 146.648 446.845 146.648C459.709 146.648 471.858 150.043 483.293 156.832C488.653 146.827 494.37 135.749 500.445 123.6C506.52 111.093 512.594 98.7653 518.669 86.616C524.744 74.4667 530.104 63.3893 534.749 53.384C539.394 43.0213 542.968 35.16 545.469 29.8C550.829 17.2933 555.832 9.43199 560.477 6.21599C565.48 2.64266 571.376 0.855996 578.165 0.855996C582.096 0.855996 586.384 1.39199 591.029 2.46397C596.032 3.17865 600.856 3.35733 605.501 3C603.714 4.78666 599.605 10.6827 593.173 20.688C586.741 30.6933 578.88 43.736 569.589 59.816C560.298 75.5386 550.293 92.8693 539.573 111.808C529.21 130.747 518.848 150.221 508.485 170.232C498.48 189.885 489.189 208.824 480.613 227.048C472.037 245.272 465.248 261.352 460.245 275.288C455.242 289.224 452.741 299.765 452.741 306.912C452.741 311.557 453.813 315.667 455.957 319.24C458.101 322.456 461.674 324.064 466.677 324.064C473.466 324.064 480.434 320.669 487.581 313.88C494.728 307.091 501.517 298.693 507.949 288.688C514.738 278.325 520.634 268.32 525.637 258.672C530.997 248.667 534.928 240.627 537.429 234.552C541.717 234.552 543.861 236.16 543.861 239.376C540.645 246.88 536.357 256.171 530.997 267.248C525.637 278.325 519.384 289.224 512.237 299.944C505.09 310.664 497.05 319.776 488.117 327.28C479.541 334.427 470.429 338 460.781 338ZM363.765 321.92C368.768 321.92 375.021 319.24 382.525 313.88C390.029 308.163 398.069 299.229 406.645 287.08C416.65 272.787 428.085 254.92 440.949 233.48C453.813 212.04 466.498 189.349 479.005 165.408C476.504 163.264 473.824 161.656 470.965 160.584C468.106 159.512 464.176 158.976 459.173 158.976C450.954 158.976 441.842 162.549 431.837 169.696C422.189 176.485 412.362 185.419 402.357 196.496C392.709 207.573 383.776 219.544 375.557 232.408C367.696 245.272 361.264 257.779 356.261 269.928C351.616 281.72 349.293 291.904 349.293 300.48C349.293 314.773 354.117 321.92 363.765 321.92ZM660.127 339.677C651.555 339.677 643.916 337.255 637.208 332.41C630.872 327.565 627.705 317.69 627.705 302.783C627.705 296.448 628.077 290.485 628.823 284.895C629.941 279.305 631.245 273.342 632.736 267.007C629.382 272.597 624.723 279.491 618.761 287.69C612.798 295.889 606.09 303.901 598.637 311.727C591.556 319.553 584.103 326.075 576.277 331.292C568.823 336.509 561.743 339.118 555.035 339.118C545.345 339.118 537.519 334.832 531.557 326.261C525.594 317.317 522.613 305.764 522.613 291.603C522.613 276.324 526.153 259.926 533.234 242.411C540.314 224.896 550.004 208.126 562.302 192.101C574.6 176.076 588.761 163.033 604.786 152.971C620.81 142.909 637.58 137.878 655.096 137.878C663.667 137.878 671.866 139.369 679.692 142.35C687.518 144.959 694.412 149.431 700.375 155.766C702.983 158.375 704.288 161.356 704.288 164.71C704.288 166.946 703.356 168.809 701.493 170.3C699.629 171.791 697.207 172.163 694.226 171.418C690.126 158.375 681.369 151.853 667.953 151.853C661.617 151.853 654.35 153.903 646.152 158.002C636.09 163.219 625.282 171.604 613.73 183.157C602.55 194.337 591.929 207.194 581.867 221.728C572.177 235.889 564.165 250.237 557.83 264.771C551.494 279.305 548.327 292.535 548.327 304.46C548.327 316.758 552.985 322.907 562.302 322.907C570.5 322.907 578.885 318.994 587.457 311.168C596.401 303.342 604.786 293.653 612.612 282.1C620.81 270.175 628.264 258.436 634.972 246.883C641.68 235.33 646.897 226.014 650.624 218.933C656.214 208.871 661.431 200.486 666.276 193.778C671.12 187.07 678.015 183.716 686.959 183.716C691.058 183.716 695.157 184.275 699.257 185.393C703.356 186.511 707.642 186.697 712.114 185.952C700.934 197.132 691.058 210.362 682.487 225.641C674.288 240.92 667.953 256.013 663.481 270.92C659.009 285.454 656.773 297.752 656.773 307.814C656.773 318.994 660.499 324.584 667.953 324.584C673.915 324.584 680.251 321.23 686.959 314.522C694.039 307.814 700.747 299.429 707.083 289.367C713.791 278.932 719.94 268.498 725.53 258.063C731.12 247.256 735.592 237.939 738.946 230.113C740.809 230.113 742.3 230.299 743.418 230.672C744.908 231.045 745.654 232.535 745.654 235.144C745.281 236.635 744.536 238.312 743.418 240.175C742.672 241.666 741.368 244.461 739.505 248.56C736.523 254.523 732.424 262.535 727.207 272.597C721.989 282.659 715.84 292.907 708.76 303.342C701.679 313.404 694.039 321.975 685.841 329.056C677.642 336.137 669.071 339.677 660.127 339.677Z" fill="#FDD1CE"/>
<path d="M743.87 133.196C743.693 137.437 743.239 144.144 742.864 147.951C740.931 167.461 736.197 173.083 719.646 175.47C714.853 176.14 702.247 177.146 698.243 177.146C697.552 177.146 697 177.225 697 177.324C697 177.403 698.44 177.541 700.215 177.62C704.575 177.797 711.262 178.271 714.853 178.626C722.901 179.454 727.458 180.5 731.423 182.473C738.465 185.984 741.424 192.277 742.864 206.736C743.239 210.544 743.693 217.251 743.87 221.472C743.949 223.247 744.068 224.688 744.146 224.688C744.225 224.688 744.344 223.247 744.423 221.472C744.6 217.093 745.074 210.208 745.448 206.638C747.421 187.108 752.057 181.624 768.706 179.237C773.796 178.488 785.868 177.541 790.267 177.541C790.938 177.541 791.49 177.462 791.49 177.363C791.49 177.285 790.05 177.146 788.295 177.068C781.055 176.752 772.592 176.062 768.509 175.45C751.978 172.945 747.421 167.52 745.448 148.05C745.074 144.479 744.6 137.595 744.423 133.196C744.344 131.44 744.225 130 744.146 130C744.068 130 743.949 131.44 743.87 133.196Z" fill="#FDD1CE"/>
<path d="M119.919 87.152V104.108C119.919 106.052 119.547 107.732 118.803 109.148C118.083 110.564 117.039 111.656 115.671 112.424C114.303 113.168 112.659 113.54 110.739 113.54C108.843 113.54 107.223 113.168 105.879 112.424C104.535 111.68 103.491 110.648 102.747 109.328C102.003 108.008 101.607 106.472 101.559 104.72H105.555C105.603 105.824 105.819 106.772 106.203 107.564C106.611 108.332 107.187 108.932 107.931 109.364C108.699 109.772 109.635 109.976 110.739 109.976C111.867 109.976 112.815 109.76 113.583 109.328C114.351 108.896 114.927 108.26 115.311 107.42C115.719 106.556 115.923 105.512 115.923 104.288V87.152H119.919ZM198.891 113.54C197.019 113.54 195.279 113.204 193.671 112.532C192.087 111.836 190.695 110.876 189.495 109.652C188.319 108.428 187.395 107 186.723 105.368C186.075 103.712 185.751 101.936 185.751 100.04C185.751 98.144 186.075 96.38 186.723 94.748C187.395 93.116 188.319 91.7 189.495 90.5C190.695 89.276 192.087 88.328 193.671 87.656C195.279 86.96 197.019 86.612 198.891 86.612C200.763 86.612 202.491 86.96 204.075 87.656C205.683 88.328 207.075 89.276 208.251 90.5C209.451 91.7 210.375 93.116 211.023 94.748C211.695 96.38 212.031 98.144 212.031 100.04C212.031 101.936 211.695 103.712 211.023 105.368C210.375 107 209.451 108.428 208.251 109.652C207.075 110.876 205.683 111.836 204.075 112.532C202.491 113.204 200.763 113.54 198.891 113.54ZM198.891 109.976C200.259 109.976 201.495 109.724 202.599 109.22C203.703 108.716 204.651 108.008 205.443 107.096C206.259 106.184 206.871 105.128 207.279 103.928C207.711 102.704 207.927 101.408 207.927 100.04C207.927 98.672 207.711 97.388 207.279 96.188C206.871 94.988 206.259 93.944 205.443 93.056C204.651 92.144 203.703 91.436 202.599 90.932C201.495 90.428 200.259 90.176 198.891 90.176C197.523 90.176 196.287 90.428 195.183 90.932C194.079 91.436 193.119 92.144 192.303 93.056C191.511 93.944 190.899 94.988 190.467 96.188C190.059 97.388 189.855 98.672 189.855 100.04C189.855 101.408 190.059 102.704 190.467 103.928C190.899 105.128 191.511 106.184 192.303 107.096C193.119 108.008 194.079 108.716 195.183 109.22C196.287 109.724 197.523 109.976 198.891 109.976ZM282.006 113H278.046V87.152H282.006V113ZM353.489 103.388H365.513L366.593 106.592H352.157L353.489 103.388ZM367.313 113L359.429 91.472L351.437 113H347.441L357.341 87.152H361.697L371.525 113H367.313ZM455.204 105.44C455.204 106.928 454.808 108.272 454.016 109.472C453.248 110.672 452.132 111.62 450.668 112.316C449.204 113.012 447.428 113.36 445.34 113.36C443.252 113.36 441.452 113.012 439.94 112.316C438.452 111.596 437.288 110.588 436.448 109.292C435.608 107.996 435.128 106.496 435.008 104.792H439.04C439.136 106.424 439.7 107.732 440.732 108.716C441.788 109.7 443.3 110.192 445.268 110.192C446.372 110.192 447.356 110.024 448.22 109.688C449.084 109.352 449.756 108.872 450.236 108.248C450.74 107.624 450.992 106.868 450.992 105.98C450.992 104.9 450.632 104.06 449.912 103.46C449.192 102.86 448.088 102.404 446.6 102.092L442.856 101.372C441.944 101.18 441.068 100.916 440.228 100.58C439.412 100.244 438.668 99.812 437.996 99.284C437.348 98.732 436.832 98.06 436.448 97.268C436.088 96.452 435.908 95.504 435.908 94.424C435.908 92.96 436.292 91.652 437.06 90.5C437.852 89.348 438.932 88.448 440.3 87.8C441.692 87.128 443.288 86.792 445.088 86.792C446.888 86.792 448.496 87.14 449.912 87.836C451.352 88.532 452.504 89.504 453.368 90.752C454.256 92 454.748 93.488 454.844 95.216H450.812C450.74 94.184 450.452 93.272 449.948 92.48C449.468 91.688 448.82 91.076 448.004 90.644C447.188 90.188 446.228 89.96 445.124 89.96C444.02 89.96 443.084 90.164 442.316 90.572C441.548 90.956 440.96 91.472 440.552 92.12C440.144 92.744 439.94 93.428 439.94 94.172C439.94 94.988 440.144 95.648 440.552 96.152C440.984 96.632 441.548 97.016 442.244 97.304C442.94 97.592 443.684 97.82 444.476 97.988L448.292 98.744C450.524 99.2 452.228 99.944 453.404 100.976C454.604 102.008 455.204 103.496 455.204 105.44Z" fill="#FDD1CE"/>
<path d="M140.488 387.04C144.221 387.04 147.171 388.123 149.336 390.288C151.539 392.453 152.64 395.664 152.64 399.92V417H147.264V400.536C147.264 397.661 146.592 395.496 145.248 394.04C143.941 392.584 142.056 391.856 139.592 391.856C136.867 391.856 134.701 392.715 133.096 394.432C131.491 396.112 130.688 398.539 130.688 401.712V417H125.312V400.536C125.312 397.661 124.64 395.496 123.296 394.04C121.989 392.584 120.104 391.856 117.64 391.856C114.915 391.856 112.749 392.715 111.144 394.432C109.539 396.112 108.736 398.539 108.736 401.712V417H103.36V387.32H108.512V391.744C109.595 390.213 111.013 389.056 112.768 388.272C114.523 387.451 116.52 387.04 118.76 387.04C121.075 387.04 123.128 387.507 124.92 388.44C126.712 389.373 128.093 390.736 129.064 392.528C130.184 390.811 131.733 389.467 133.712 388.496C135.728 387.525 137.987 387.04 140.488 387.04ZM171.492 387.32H176.868V417H171.492V387.32ZM174.18 381.608C173.134 381.608 172.257 381.272 171.548 380.6C170.876 379.928 170.54 379.107 170.54 378.136C170.54 377.165 170.876 376.344 171.548 375.672C172.257 374.963 173.134 374.608 174.18 374.608C175.225 374.608 176.084 374.944 176.756 375.616C177.465 376.251 177.82 377.053 177.82 378.024C177.82 379.032 177.465 379.891 176.756 380.6C176.084 381.272 175.225 381.608 174.18 381.608ZM233.22 387.04C236.954 387.04 239.903 388.123 242.068 390.288C244.271 392.453 245.372 395.664 245.372 399.92V417H239.996V400.536C239.996 397.661 239.324 395.496 237.98 394.04C236.674 392.584 234.788 391.856 232.324 391.856C229.599 391.856 227.434 392.715 225.828 394.432C224.223 396.112 223.42 398.539 223.42 401.712V417H218.044V400.536C218.044 397.661 217.372 395.496 216.028 394.04C214.722 392.584 212.836 391.856 210.372 391.856C207.647 391.856 205.482 392.715 203.876 394.432C202.271 396.112 201.468 398.539 201.468 401.712V417H196.092V387.32H201.244V391.744C202.327 390.213 203.746 389.056 205.5 388.272C207.255 387.451 209.252 387.04 211.492 387.04C213.807 387.04 215.86 387.507 217.652 388.44C219.444 389.373 220.826 390.736 221.796 392.528C222.916 390.811 224.466 389.467 226.444 388.496C228.46 387.525 230.719 387.04 233.22 387.04ZM277.1 417.336C274.151 417.336 271.5 416.683 269.148 415.376C266.796 414.069 264.948 412.277 263.604 410C262.298 407.685 261.644 405.072 261.644 402.16C261.644 399.248 262.298 396.653 263.604 394.376C264.948 392.061 266.796 390.269 269.148 389C271.5 387.693 274.151 387.04 277.1 387.04C280.05 387.04 282.682 387.693 284.996 389C287.348 390.269 289.178 392.061 290.484 394.376C291.828 396.653 292.5 399.248 292.5 402.16C292.5 405.072 291.828 407.685 290.484 410C289.178 412.277 287.348 414.069 284.996 415.376C282.682 416.683 280.05 417.336 277.1 417.336ZM277.1 412.632C279.004 412.632 280.703 412.203 282.196 411.344C283.727 410.448 284.922 409.216 285.78 407.648C286.639 406.043 287.068 404.213 287.068 402.16C287.068 400.107 286.639 398.296 285.78 396.728C284.922 395.123 283.727 393.891 282.196 393.032C280.703 392.173 279.004 391.744 277.1 391.744C275.196 391.744 273.479 392.173 271.948 393.032C270.455 393.891 269.26 395.123 268.364 396.728C267.506 398.296 267.076 400.107 267.076 402.16C267.076 404.213 267.506 406.043 268.364 407.648C269.26 409.216 270.455 410.448 271.948 411.344C273.479 412.203 275.196 412.632 277.1 412.632ZM317.407 417.336C314.981 417.336 312.647 417.019 310.407 416.384C308.167 415.712 306.413 414.872 305.143 413.864L307.383 409.608C308.69 410.541 310.277 411.288 312.143 411.848C314.01 412.408 315.895 412.688 317.799 412.688C322.503 412.688 324.855 411.344 324.855 408.656C324.855 407.76 324.538 407.051 323.903 406.528C323.269 406.005 322.466 405.632 321.495 405.408C320.562 405.147 319.218 404.867 317.463 404.568C315.074 404.195 313.114 403.765 311.583 403.28C310.09 402.795 308.802 401.973 307.719 400.816C306.637 399.659 306.095 398.035 306.095 395.944C306.095 393.256 307.215 391.109 309.455 389.504C311.695 387.861 314.701 387.04 318.471 387.04C320.45 387.04 322.429 387.283 324.407 387.768C326.386 388.253 328.01 388.907 329.279 389.728L326.983 393.984C324.557 392.416 321.701 391.632 318.415 391.632C316.138 391.632 314.402 392.005 313.207 392.752C312.013 393.499 311.415 394.488 311.415 395.72C311.415 396.691 311.751 397.456 312.423 398.016C313.095 398.576 313.917 398.987 314.887 399.248C315.895 399.509 317.295 399.808 319.087 400.144C321.477 400.555 323.399 401.003 324.855 401.488C326.349 401.936 327.618 402.72 328.663 403.84C329.709 404.96 330.231 406.528 330.231 408.544C330.231 411.232 329.074 413.379 326.759 414.984C324.482 416.552 321.365 417.336 317.407 417.336ZM397.909 375.448V417H392.757V412.296C391.562 413.939 390.05 415.189 388.221 416.048C386.392 416.907 384.376 417.336 382.173 417.336C379.298 417.336 376.722 416.701 374.445 415.432C372.168 414.163 370.376 412.389 369.069 410.112C367.8 407.797 367.165 405.147 367.165 402.16C367.165 399.173 367.8 396.541 369.069 394.264C370.376 391.987 372.168 390.213 374.445 388.944C376.722 387.675 379.298 387.04 382.173 387.04C384.301 387.04 386.261 387.451 388.053 388.272C389.845 389.056 391.338 390.232 392.533 391.8V375.448H397.909ZM382.621 412.632C384.488 412.632 386.186 412.203 387.717 411.344C389.248 410.448 390.442 409.216 391.301 407.648C392.16 406.043 392.589 404.213 392.589 402.16C392.589 400.107 392.16 398.296 391.301 396.728C390.442 395.123 389.248 393.891 387.717 393.032C386.186 392.173 384.488 391.744 382.621 391.744C380.717 391.744 379 392.173 377.469 393.032C375.976 393.891 374.781 395.123 373.885 396.728C373.026 398.296 372.597 400.107 372.597 402.16C372.597 404.213 373.026 406.043 373.885 407.648C374.781 409.216 375.976 410.448 377.469 411.344C379 412.203 380.717 412.632 382.621 412.632ZM430.257 417.336C427.084 417.336 424.284 416.683 421.857 415.376C419.468 414.069 417.601 412.277 416.257 410C414.95 407.723 414.297 405.109 414.297 402.16C414.297 399.211 414.932 396.597 416.201 394.32C417.508 392.043 419.281 390.269 421.521 389C423.798 387.693 426.356 387.04 429.193 387.04C432.068 387.04 434.606 387.675 436.809 388.944C439.012 390.213 440.729 392.005 441.961 394.32C443.23 396.597 443.865 399.267 443.865 402.328C443.865 402.552 443.846 402.813 443.809 403.112C443.809 403.411 443.79 403.691 443.753 403.952H418.497V400.088H440.953L438.769 401.432C438.806 399.528 438.414 397.829 437.593 396.336C436.772 394.843 435.633 393.685 434.177 392.864C432.758 392.005 431.097 391.576 429.193 391.576C427.326 391.576 425.665 392.005 424.209 392.864C422.753 393.685 421.614 394.861 420.793 396.392C419.972 397.885 419.561 399.603 419.561 401.544V402.44C419.561 404.419 420.009 406.192 420.905 407.76C421.838 409.291 423.126 410.485 424.769 411.344C426.412 412.203 428.297 412.632 430.425 412.632C432.18 412.632 433.766 412.333 435.185 411.736C436.641 411.139 437.91 410.243 438.993 409.048L441.961 412.52C440.617 414.088 438.937 415.283 436.921 416.104C434.942 416.925 432.721 417.336 430.257 417.336ZM511.906 387.32V417H506.754V412.296C505.56 413.939 504.048 415.189 502.218 416.048C500.389 416.907 498.373 417.336 496.17 417.336C493.296 417.336 490.72 416.701 488.442 415.432C486.165 414.163 484.373 412.389 483.066 410.112C481.797 407.797 481.162 405.147 481.162 402.16C481.162 399.173 481.797 396.541 483.066 394.264C484.373 391.987 486.165 390.213 488.442 388.944C490.72 387.675 493.296 387.04 496.17 387.04C498.298 387.04 500.258 387.451 502.05 388.272C503.842 389.056 505.336 390.232 506.53 391.8V387.32H511.906ZM496.618 412.632C498.485 412.632 500.184 412.203 501.714 411.344C503.245 410.448 504.44 409.216 505.298 407.648C506.157 406.043 506.586 404.213 506.586 402.16C506.586 400.107 506.157 398.296 505.298 396.728C504.44 395.123 503.245 393.891 501.714 393.032C500.184 392.173 498.485 391.744 496.618 391.744C494.714 391.744 492.997 392.173 491.466 393.032C489.973 393.891 488.778 395.123 487.882 396.728C487.024 398.296 486.594 400.107 486.594 402.16C486.594 404.213 487.024 406.043 487.882 407.648C488.778 409.216 489.973 410.448 491.466 411.344C492.997 412.203 494.714 412.632 496.618 412.632ZM540.054 417.336C537.179 417.336 534.958 416.552 533.39 414.984C531.822 413.379 531.038 411.139 531.038 408.264V375.448H536.414V407.816C536.414 409.421 536.787 410.653 537.534 411.512C538.318 412.371 539.475 412.8 541.006 412.8C541.939 412.8 542.817 412.613 543.638 412.24L543.918 416.664C542.686 417.112 541.398 417.336 540.054 417.336ZM557.99 387.32H563.366V417H557.99V387.32ZM560.678 381.608C559.633 381.608 558.756 381.272 558.046 380.6C557.374 379.928 557.038 379.107 557.038 378.136C557.038 377.165 557.374 376.344 558.046 375.672C558.756 374.963 559.633 374.608 560.678 374.608C561.724 374.608 562.582 374.944 563.254 375.616C563.964 376.251 564.318 377.053 564.318 378.024C564.318 379.032 563.964 379.891 563.254 380.6C562.582 381.272 561.724 381.608 560.678 381.608ZM595.527 417.336C592.503 417.336 589.796 416.683 587.407 415.376C585.055 414.069 583.207 412.277 581.863 410C580.519 407.685 579.847 405.072 579.847 402.16C579.847 399.248 580.519 396.653 581.863 394.376C583.207 392.061 585.055 390.269 587.407 389C589.796 387.693 592.503 387.04 595.527 387.04C598.215 387.04 600.604 387.581 602.695 388.664C604.823 389.747 606.466 391.315 607.623 393.368L603.535 396C602.602 394.581 601.444 393.517 600.063 392.808C598.682 392.099 597.151 391.744 595.471 391.744C593.53 391.744 591.775 392.173 590.207 393.032C588.676 393.891 587.463 395.123 586.567 396.728C585.708 398.296 585.279 400.107 585.279 402.16C585.279 404.251 585.708 406.099 586.567 407.704C587.463 409.272 588.676 410.485 590.207 411.344C591.775 412.203 593.53 412.632 595.471 412.632C597.151 412.632 598.682 412.277 600.063 411.568C601.444 410.859 602.602 409.795 603.535 408.376L607.623 410.952C606.466 413.005 604.823 414.592 602.695 415.712C600.604 416.795 598.215 417.336 595.527 417.336ZM636.759 417.336C633.586 417.336 630.786 416.683 628.359 415.376C625.97 414.069 624.103 412.277 622.759 410C621.452 407.723 620.799 405.109 620.799 402.16C620.799 399.211 621.434 396.597 622.703 394.32C624.01 392.043 625.783 390.269 628.023 389C630.3 387.693 632.858 387.04 635.695 387.04C638.57 387.04 641.108 387.675 643.311 388.944C645.514 390.213 647.231 392.005 648.463 394.32C649.732 396.597 650.367 399.267 650.367 402.328C650.367 402.552 650.348 402.813 650.311 403.112C650.311 403.411 650.292 403.691 650.255 403.952H624.999V400.088H647.455L645.271 401.432C645.308 399.528 644.916 397.829 644.095 396.336C643.274 394.843 642.135 393.685 640.679 392.864C639.26 392.005 637.599 391.576 635.695 391.576C633.828 391.576 632.167 392.005 630.711 392.864C629.255 393.685 628.116 394.861 627.295 396.392C626.474 397.885 626.063 399.603 626.063 401.544V402.44C626.063 404.419 626.511 406.192 627.407 407.76C628.34 409.291 629.628 410.485 631.271 411.344C632.914 412.203 634.799 412.632 636.927 412.632C638.682 412.632 640.268 412.333 641.687 411.736C643.143 411.139 644.412 410.243 645.495 409.048L648.463 412.52C647.119 414.088 645.439 415.283 643.423 416.104C641.444 416.925 639.223 417.336 636.759 417.336Z" fill="#FDD1CE"/>
</svg>
